<svg xmlns="http://www.w3.org/2000/svg" viewBox="0 0 120 97.961"><path d="M90.851 26.17v2.695c0 .744-.603 1.348-1.347 1.348H85.46v2.021a2.021 2.021 0 0 1-2.021 2.021H17.41a2.021 2.021 0 0 1-2.02-2.02v-2.022h-4.043A1.348 1.348 0 0 1 10 28.865V26.17c0-.545.329-1.036.832-1.245L49.91 10.102c.33-.136.701-.136 1.03 0L90.02 24.925c.504.209.832.7.832 1.245zM86.81 77.376H14.043A4.043 4.043 0 0 0 10 81.419v2.695c0 .744.603 1.347 1.348 1.347h78.156c.744 0 1.347-.603 1.347-1.347v-2.695a4.043 4.043 0 0 0-4.042-4.043zM23.475 36.95v32.34h-6.064a2.021 2.021 0 0 0-2.02 2.022v3.369h70.07v-3.369a2.021 2.021 0 0 0-2.021-2.021h-6.064V36.95h-10.78v32.34h-10.78V36.95h-10.78v32.34h-10.78V36.95h-10.78z" fill="#c0bfbf"/><path d="M109.253 80.523L98.561 69.831a2.572 2.572 0 0 0-1.823-.75h-1.749a22.198 22.198 0 0 0 4.72-13.728c0-12.323-9.985-22.308-22.308-22.308S55.093 43.03 55.093 55.353 65.078 77.66 77.401 77.66c5.18 0 9.942-1.759 13.727-4.719v1.748c0 .687.269 1.34.751 1.823l10.693 10.693a2.563 2.563 0 0 0 3.635 0l3.036-3.035a2.586 2.586 0 0 0 .01-3.647zM77.401 69.08c-7.583 0-13.728-6.134-13.728-13.727 0-7.583 6.135-13.728 13.728-13.728 7.582 0 13.727 6.134 13.727 13.728 0 7.582-6.134 13.727-13.727 13.727z" fill="#fff"/></svg>